<?xml version="1.0" standalone="no"?><!DOCTYPE svg PUBLIC "-//W3C//DTD SVG 1.1//EN" "http://www.w3.org/Graphics/SVG/1.1/DTD/svg11.dtd"><svg t="1667922195282" class="icon" viewBox="0 0 1024 1024" version="1.1" xmlns="http://www.w3.org/2000/svg" p-id="26348" xmlns:xlink="http://www.w3.org/1999/xlink" width="200" height="200"><path d="M277.6064 779.6736c28.2624-10.3936 58.7264-30.72 90.112-66.2016 46.0288 48.4864 90.5728 75.2128 144.1792 75.2128s105.8304-24.2176 140.6464-75.2128c22.528 24.32 57.2928 50.432 98.5088 62.0544 80.0256-67.8912 130.816-169.0624 130.816-282.2144 0-204.3392-165.632-370.0224-370.0224-370.0224S141.8752 288.9728 141.8752 493.312c0 115.456 52.8896 218.5216 135.7312 286.3616z" fill="#CAE2FF" p-id="26349"></path><path d="M859.9552 845.7728c-100.864 82.0224-191.0272-5.5808-208.0768-24.0128a30.6176 30.6176 0 0 0-24.7808-9.728 30.6176 30.6176 0 0 0-23.0912 13.312c-27.2384 39.8848-68.1472 61.7984-115.2512 61.7984-41.216 0-78.7968-20.224-121.856-65.6384-5.9392-6.2464-14.336-9.8816-22.8352-9.5744-8.6016 0.1536-16.7424 3.8912-22.4768 10.3424-37.4272 42.24-75.8784 64.0512-114.3808 64.8192h-2.048c-51.5584 0-88.7296-37.9392-89.4464-38.656a30.73536 30.73536 0 0 0-44.7488 42.1376c2.2528 2.4064 55.2448 57.9584 134.144 57.9584h2.3552c48.2816-0.6656 94.5152-21.6064 137.728-62.3616 46.8992 42.4448 93.0816 62.3616 143.5648 62.3616 55.1424 0 105.8816-21.8624 143.5648-60.9792 71.1168 58.88 174.08 80.896 266.4448 5.7856a30.72 30.72 0 0 0 4.4544-43.2128c-10.752-13.056-30.1056-15.104-43.264-4.352z" fill="#5866D2" p-id="26350"></path><path d="M929.5872 351.7952c-1.5872-0.6656-20.48-8.2944-47.9232-12.6976-60.5184-144.64-203.4688-246.528-369.8176-246.528-220.9792 0-400.7424 179.7632-400.7424 400.7424 0 97.7408 35.2256 190.5152 98.304 262.912-41.6256-7.2704-70.0416-36.352-70.656-36.9664a30.69952 30.69952 0 0 0-43.3152-1.28 30.73536 30.73536 0 0 0-1.4336 43.4176c2.2528 2.4064 55.2448 57.9584 134.144 57.9584h2.3552c48.2816-0.6656 94.464-21.6064 137.728-62.3616 43.1104 39.0144 85.6064 58.9312 131.4304 61.952 4.0448 0.256 8.0896 0.4608 12.1856 0.4608 3.4304 0 6.8608-0.1024 10.2912-0.256 37.2736-1.8432 72.192-13.7728 102.0928-34.2528 0.2048-0.1536 0.4096-0.256 0.6144-0.4096 1.8944-1.28 3.7376-2.7136 5.5808-4.0448 0.8192-0.6144 1.6896-1.1776 2.5088-1.8432 1.3312-1.024 2.6112-2.0992 3.8912-3.1232 1.28-1.0752 2.6112-2.0992 3.8912-3.1744 0.768-0.6656 1.4848-1.3824 2.2528-2.048 1.7408-1.536 3.5328-3.072 5.2736-4.7104l0.512-0.512c2.2528-2.1504 4.5056-4.352 6.656-6.6048a252.0576 252.0576 0 0 0 37.376 25.7024c0.4096 0.2048 0.8192 0.4608 1.2288 0.6656 2.7136 1.4848 5.4272 2.9696 8.192 4.352 1.1776 0.6144 2.3552 1.2288 3.584 1.792 2.7136 1.3312 5.4784 2.56 8.2432 3.7888 2.5088 1.0752 5.0688 2.1504 7.68 3.1744 0.256 0.1024 0.4608 0.2048 0.7168 0.256 6.5024 2.56 13.2096 4.9664 20.2752 6.912 1.28 0.3584 2.56 0.6144 3.8912 0.8192 55.6544 14.2336 117.5552 5.2736 175.3088-41.6768a30.72 30.72 0 0 0-38.7584-47.6672c-21.3504 17.3568-42.24 27.0848-62.0032 31.488a399.68768 399.68768 0 0 0 82.1248-340.5312c1.792 0.6144 2.816 1.024 2.8672 1.0752a30.77632 30.77632 0 0 0 40.1408-16.64c6.4512-15.7184-1.024-33.6896-16.6912-40.1408z m-185.6 388.9152c-6.4-2.56-12.4416-5.4784-18.0736-8.5504-0.3072-0.2048-0.6656-0.3584-0.9728-0.5632-1.4336-0.768-2.816-1.5872-4.1984-2.4064-1.1264-0.6656-2.2528-1.3824-3.3792-2.048-0.5632-0.3584-1.1264-0.6656-1.6384-1.024a214.33856 214.33856 0 0 1-38.8096-31.6416c-0.6656-0.6656-1.28-1.3312-1.8432-1.9456a30.75584 30.75584 0 0 0-21.3504-9.7792c-0.8704-0.0512-1.7408 0-2.6112 0.0512H650.24c-0.512 0.0512-1.024 0.1536-1.536 0.2048-7.5264 0.9728-14.4896 4.608-19.4048 10.3424-0.768 0.8704-1.4848 1.792-2.0992 2.7648-27.2384 39.8848-68.1472 61.7984-115.2512 61.7984-41.216 0-78.7968-20.224-121.856-65.6384-5.6832-5.9904-13.4656-9.472-21.6576-9.5232-0.2048 0-0.4096-0.0512-0.6144-0.0512h-0.512c-1.0752 0-2.1504 0.1024-3.2256 0.2048-3.9936 0.512-7.8336 1.792-11.3152 3.7376l-0.6144 0.3072c-0.3072 0.1536-0.5632 0.4096-0.8704 0.5632-2.4064 1.536-4.608 3.328-6.5024 5.4784-2.4576 2.7648-4.9152 5.4784-7.424 8.0896-0.512 0.5632-1.024 1.0752-1.5872 1.5872-1.9456 2.048-3.8912 4.0448-5.888 5.9392-0.6656 0.6656-1.3312 1.2288-1.9456 1.8944-1.8432 1.7408-3.6864 3.4816-5.5296 5.1712-0.6656 0.6144-1.3824 1.2288-2.048 1.792-1.8432 1.5872-3.6352 3.1744-5.4784 4.7104-0.7168 0.5632-1.3824 1.1264-2.0992 1.6896-1.8432 1.4848-3.6352 2.9184-5.4784 4.3008-0.7168 0.512-1.4336 1.0752-2.1504 1.5872-1.792 1.3312-3.584 2.6112-5.376 3.84-0.768 0.512-1.4848 1.024-2.2528 1.536-1.7408 1.1264-3.4816 2.2528-5.2224 3.328-0.8192 0.512-1.6384 0.9728-2.4064 1.4336-1.6896 0.9728-3.3792 1.8944-5.0688 2.816-0.5632 0.3072-1.1776 0.6144-1.7408 0.9216-70.3488-64.3072-110.3872-154.5216-110.3872-250.368 0-187.0848 152.2176-339.3024 339.3024-339.3024 131.2256 0 245.248 74.9568 301.6192 184.2688-14.336 2.1504-29.0816 6.0416-43.6224 12.3904-26.368 11.52-48.64 29.2352-66.5088 53.0432-23.296-37.7856-52.8896-62.72-88.3712-74.3424-74.5472-24.4736-144.4352 21.4528-147.4048 23.4496a30.68928 30.68928 0 0 0-8.448 42.4448c9.3696 14.08 28.3648 17.92 42.496 8.6528 0.4608-0.3072 48.64-31.3856 94.5152-16.0768 32.1024 10.7008 57.8048 42.3936 76.4928 94.1568 4.352 12.1344 15.872 20.224 28.7232 20.3264h0.1536a30.6688 30.6688 0 0 0 28.7744-20.0192c13.9264-37.376 35.328-62.6176 63.744-75.1616 14.1824-6.2464 29.0816-8.96 43.2128-9.5744 8.96 30.3616 13.824 62.5152 13.824 95.744-0.0512 94.1056-38.912 183.296-107.2128 247.4496z" fill="#5866D2" p-id="26351"></path><path d="M466.6368 508.8768c-5.0688-2.2016-50.6368-21.1456-95.7952-1.536-9.1648 3.9936-19.8144 10.2912-30.1568 20.3776-12.7488-16.0768-28.0064-27.0336-45.7728-32.768-45.7216-14.7968-86.2208 12.7488-90.7264 15.9232a30.68416 30.68416 0 0 0-7.168 42.8544 30.68416 30.68416 0 0 0 42.8544 7.168c0.2048-0.1024 19.6096-12.8512 36.1472-7.4752 16.4864 5.3248 27.136 27.7504 33.1776 45.568a30.74048 30.74048 0 0 0 28.928 20.8896h0.1536a30.6688 30.6688 0 0 0 28.9792-20.5824c6.4512-18.432 15.5136-30.0544 27.7504-35.4816 21.0432-9.3696 46.7968 1.28 46.848 1.28 15.5136 6.8608 33.6384-0.2048 40.4992-15.7184s-0.2048-33.6896-15.7184-40.4992z" fill="#5866D2" p-id="26352"></path></svg>