<?xml version="1.0" standalone="no"?><!DOCTYPE svg PUBLIC "-//W3C//DTD SVG 1.1//EN" "http://www.w3.org/Graphics/SVG/1.1/DTD/svg11.dtd"><svg t="1667821699635" class="icon" viewBox="0 0 1024 1024" version="1.1" xmlns="http://www.w3.org/2000/svg" p-id="8903" xmlns:xlink="http://www.w3.org/1999/xlink" width="200" height="200"><path d="M644.77184 519.29088H380.88704c-36.57728 0-66.23232-29.65504-66.23232-66.23232V189.15328c0-36.57728 29.65504-66.23232 66.23232-66.23232h263.8848c36.57728 0 66.23232 29.65504 66.23232 66.23232v263.8848c0 36.59776-29.65504 66.2528-66.23232 66.2528z" fill="#FFB357" p-id="8904"></path><path d="M638.40256 519.29088h-82.45248c-23.81824 0-43.13088-19.31264-43.13088-43.13088V166.05184c0-23.81824 19.31264-43.13088 43.13088-43.13088h82.45248c40.09984 0 72.6016 32.50176 72.6016 72.6016v251.16672c0 40.09984-32.50176 72.6016-72.6016 72.6016z" fill="#FFCE71" p-id="8905"></path><path d="M624.18944 529.92H401.46944c-53.73952 0-97.46432-43.7248-97.46432-97.46432v-33.62816c0-5.87776 4.77184-10.62912 10.62912-10.62912s10.62912 4.77184 10.62912 10.62912v33.62816c0 42.00448 34.18112 76.1856 76.1856 76.1856h222.72c42.00448 0 76.1856-34.18112 76.1856-76.1856V209.75616c0-42.00448-34.18112-76.1856-76.1856-76.1856H401.46944c-42.00448 0-76.1856 34.18112-76.1856 76.1856v101.84704c0 5.87776-4.77184 10.62912-10.62912 10.62912s-10.62912-4.77184-10.62912-10.62912v-101.84704c0-53.73952 43.7248-97.46432 97.46432-97.46432h222.72c53.73952 0 97.46432 43.7248 97.46432 97.46432v222.72c-0.04096 53.71904-43.74528 97.44384-97.4848 97.44384z" p-id="8906"></path><path d="M469.68832 920.84224H159.60064c-23.81824 0-43.13088-19.31264-43.13088-43.13088V567.62368c0-23.81824 19.31264-43.13088 43.13088-43.13088h310.08768c23.81824 0 43.13088 19.31264 43.13088 43.13088v310.08768c0 23.81824-19.31264 43.13088-43.13088 43.13088z" fill="#2ED0FC" p-id="8907"></path><path d="M469.68832 920.84224H357.7856c-23.81824 0-43.13088-19.31264-43.13088-43.13088V567.62368c0-23.81824 19.31264-43.13088 43.13088-43.13088h111.9232c23.81824 0 43.13088 19.31264 43.13088 43.13088v310.08768c-0.02048 23.81824-19.33312 43.13088-43.15136 43.13088z" fill="#7CE3FF" p-id="8908"></path><path d="M456.8064 931.49184H172.48256c-36.7616 0-66.6624-29.9008-66.6624-66.6624V580.5056c0-36.7616 29.9008-66.6624 66.6624-66.6624h284.32384c36.7616 0 66.64192 29.9008 66.64192 66.6624v284.32384c0.02048 36.7616-29.88032 66.6624-66.64192 66.6624zM172.48256 535.12192c-25.02656 0-45.38368 20.35712-45.38368 45.38368v284.32384c0 25.02656 20.35712 45.38368 45.38368 45.38368h284.32384c25.02656 0 45.38368-20.35712 45.38368-45.38368V580.5056c0-25.02656-20.35712-45.38368-45.38368-45.38368H172.48256z" p-id="8909"></path><path d="M866.05824 920.84224H555.95008c-23.81824 0-43.13088-19.31264-43.13088-43.13088V567.62368c0-23.81824 19.31264-43.13088 43.13088-43.13088h310.08768c23.81824 0 43.13088 19.31264 43.13088 43.13088v310.08768c0.02048 23.81824-19.29216 43.13088-43.1104 43.13088z" fill="#EA5B70" p-id="8910"></path><path d="M866.05824 920.84224h-128c-23.81824 0-43.13088-19.31264-43.13088-43.13088V567.62368c0-23.81824 19.31264-43.13088 43.13088-43.13088h128c23.81824 0 43.13088 19.31264 43.13088 43.13088v310.08768c0 23.81824-19.31264 43.13088-43.13088 43.13088z" fill="#FF8E9E" p-id="8911"></path><path d="M853.15584 931.49184H568.832c-36.7616 0-66.64192-29.9008-66.64192-66.6624V580.5056c0-36.7616 29.9008-66.6624 66.64192-66.6624h284.32384c36.7616 0 66.6624 29.9008 66.6624 66.6624v284.32384c0 36.7616-29.9008 66.6624-66.6624 66.6624zM568.832 535.12192c-25.02656 0-45.38368 20.35712-45.38368 45.38368v284.32384c0 25.02656 20.35712 45.38368 45.38368 45.38368h284.32384c25.02656 0 45.38368-20.35712 45.38368-45.38368V580.5056c0-25.02656-20.35712-45.38368-45.38368-45.38368H568.832z" p-id="8912"></path><path d="M592.6912 420.18816h-159.744a19.21024 19.21024 0 0 1-19.21024-19.21024v-159.744c0-10.60864 8.6016-19.21024 19.21024-19.21024h159.744c10.60864 0 19.21024 8.6016 19.21024 19.21024v159.744c0.02048 10.60864-8.6016 19.21024-19.21024 19.21024z" fill="#FFB357" p-id="8913"></path><path d="M586.9568 430.83776h-148.25472c-19.61984 0-35.59424-15.9744-35.59424-35.59424V246.9888c0-19.61984 15.9744-35.59424 35.59424-35.59424h148.25472c19.61984 0 35.59424 15.9744 35.59424 35.59424v148.25472c0 19.61984-15.9744 35.59424-35.59424 35.59424z m-148.25472-198.18496c-7.90528 0-14.31552 6.43072-14.31552 14.31552v148.25472c0 7.90528 6.43072 14.31552 14.31552 14.31552h148.25472c7.90528 0 14.31552-6.43072 14.31552-14.31552v-148.25472c0-7.90528-6.43072-14.31552-14.31552-14.31552h-148.25472z" p-id="8914"></path><path d="M611.92192 685.4656v-23.20384c0-21.36064 17.32608-38.68672 38.68672-38.68672h120.81152c21.36064 0 38.68672 17.32608 38.68672 38.68672v120.81152c0 21.36064-17.32608 38.68672-38.68672 38.68672h-120.81152c-21.36064 0-38.68672-17.32608-38.68672-38.68672v-26.78784" fill="#EA5B70" p-id="8915"></path><path d="M771.39968 832.38912h-120.81152c-27.19744 0-49.31584-22.1184-49.31584-49.31584v-26.78784c0-5.87776 4.77184-10.62912 10.62912-10.62912s10.62912 4.77184 10.62912 10.62912v26.78784c0 15.4624 12.57472 28.03712 28.03712 28.03712h120.81152c15.4624 0 28.03712-12.57472 28.03712-28.03712v-120.81152c0-15.4624-12.57472-28.03712-28.03712-28.03712h-120.81152c-15.4624 0-28.03712 12.57472-28.03712 28.03712v23.20384c0 5.87776-4.77184 10.62912-10.62912 10.62912s-10.62912-4.77184-10.62912-10.62912v-23.20384c0-27.19744 22.1184-49.31584 49.31584-49.31584h120.81152c27.19744 0 49.31584 22.1184 49.31584 49.31584v120.81152c0.02048 27.19744-22.1184 49.31584-49.31584 49.31584z" p-id="8916"></path><path d="M394.50624 821.76h-159.744a19.21024 19.21024 0 0 1-19.21024-19.21024v-159.744c0-10.60864 8.6016-19.21024 19.21024-19.21024h159.744c10.60864 0 19.21024 8.6016 19.21024 19.21024v159.744c0.02048 10.60864-8.58112 19.21024-19.21024 19.21024z" fill="#2ED0FC" p-id="8917"></path><path d="M388.77184 832.38912h-148.25472c-19.61984 0-35.59424-15.9744-35.59424-35.59424v-148.25472c0-19.61984 15.9744-35.59424 35.59424-35.59424h148.25472c19.64032 0 35.59424 15.9744 35.59424 35.59424v148.25472c0 19.64032-15.95392 35.59424-35.59424 35.59424z m-148.25472-198.16448c-7.90528 0-14.31552 6.43072-14.31552 14.31552v148.25472c0 7.90528 6.43072 14.31552 14.31552 14.31552h148.25472c7.90528 0 14.31552-6.43072 14.31552-14.31552v-148.25472c0-7.90528-6.43072-14.31552-14.31552-14.31552h-148.25472z" p-id="8918"></path></svg>